<?xml version="1.0" encoding="utf-8"?>
<!-- Generator: Adobe Illustrator 26.3.1, SVG Export Plug-In . SVG Version: 6.00 Build 0)  -->
<svg version="1.1" id="a" xmlns="http://www.w3.org/2000/svg" xmlns:xlink="http://www.w3.org/1999/xlink" x="0px" y="0px"
	 viewBox="0 0 274.5 132.2" style="enable-background:new 0 0 274.5 132.2;" xml:space="preserve">
<style type="text/css">
	.st0{enable-background:new    ;}
</style>
<g class="st0">
	<path d="M76.8,68.8c0.4,0,0.7,0.1,0.9,0.3c0.2,0.2,0.3,0.5,0.3,0.9v21.2c0,3.1-1,5.5-2.9,7.3c-2,1.8-4.7,2.7-8.2,2.7
		c-1.7,0-3.2-0.2-4.6-0.7c-1.4-0.5-2.5-1.1-3.5-2c-1-0.9-1.7-1.9-2.3-3.1c-0.5-1.2-0.8-2.6-0.8-4.1V40.9c0-3.1,1-5.5,2.9-7.3
		c2-1.8,4.7-2.7,8.2-2.7c1.7,0,3.2,0.2,4.6,0.7c1.4,0.5,2.6,1.1,3.5,2s1.7,1.9,2.3,3.1c0.5,1.2,0.8,2.6,0.8,4.1v22
		c0,0.3-0.1,0.6-0.3,0.9c-0.2,0.2-0.5,0.3-0.9,0.3h-3.2c-1.1,0-2-0.3-2.5-1c-0.6-0.6-0.8-1.5-0.8-2.5V40.9c0-1-0.3-1.9-0.8-2.5
		c-0.5-0.6-1.4-1-2.6-1c-1.1,0-2,0.3-2.5,1c-0.6,0.6-0.8,1.5-0.8,2.5v50.3c0,1,0.3,1.9,0.8,2.5c0.5,0.6,1.4,1,2.6,1
		c1.1,0,2-0.3,2.5-1c0.6-0.6,0.8-1.5,0.8-2.5v-16c-2.3,0-3.5-1.1-3.5-3.4v-2c0-0.4,0.1-0.7,0.3-0.9c0.2-0.2,0.5-0.3,0.9-0.3H76.8z"
		/>
	<path d="M104.3,31.8c1.7,0,3.2,0.2,4.5,0.7c1.4,0.5,2.5,1.2,3.5,2c1,0.9,1.7,1.9,2.2,3.1c0.5,1.2,0.8,2.6,0.8,4.1v21.1
		c0,1.7-0.3,3.1-1,4.2c-0.7,1.1-1.6,2-2.8,2.6c1.2,0.7,2.1,1.5,2.8,2.6c0.7,1.1,1,2.4,1,4.1v22.7c0,0.3-0.1,0.6-0.3,0.9
		c-0.2,0.2-0.5,0.3-0.9,0.3h-3.2c-1.1,0-2-0.3-2.5-1c-0.6-0.6-0.8-1.5-0.8-2.5V76.4c0-1-0.3-1.9-0.8-2.5s-1.4-1-2.6-1h-3.4v24
		c0,1-0.3,1.8-0.8,2.5c-0.6,0.6-1.4,1-2.5,1h-3.2c-0.4,0-0.7-0.1-0.9-0.3c-0.2-0.2-0.3-0.5-0.3-0.9V33c0-0.3,0.1-0.6,0.3-0.9
		c0.2-0.2,0.5-0.3,0.9-0.3H104.3z M100.8,38.3v28.1h3.4c1.2,0,2-0.3,2.6-1c0.5-0.7,0.8-1.5,0.8-2.5V41.8c0-1-0.3-1.8-0.8-2.5
		c-0.6-0.7-1.4-1-2.5-1H100.8z"/>
	<path d="M141.5,31.8c1.7,0,3.2,0.2,4.6,0.7c1.4,0.5,2.6,1.1,3.5,2c1,0.9,1.7,1.9,2.3,3.1c0.5,1.2,0.8,2.6,0.8,4.1v16.8
		c0,1.7-0.3,3.1-1,4.2c-0.7,1.1-1.6,2-2.8,2.6c1.2,0.7,2.1,1.5,2.8,2.6c0.7,1.1,1,2.4,1,4.1v18.3c0,3.1-1,5.5-3,7.3
		c-2,1.8-4.7,2.7-8.1,2.7h-10c-0.4,0-0.7-0.1-0.9-0.3c-0.2-0.2-0.3-0.5-0.3-0.9V33c0-0.3,0.1-0.6,0.3-0.9c0.2-0.2,0.5-0.3,0.9-0.3
		H141.5z M141.5,62c1.2,0,2-0.3,2.6-1c0.5-0.7,0.8-1.5,0.8-2.5V41.8c0-1-0.3-1.9-0.8-2.5c-0.5-0.6-1.4-1-2.6-1h-3.4V62H141.5z
		 M138.2,68.5v25.2h3.4c1.2,0,2.1-0.3,2.6-1c0.5-0.7,0.8-1.5,0.8-2.5V72c0-1-0.3-1.8-0.8-2.5c-0.5-0.7-1.4-1-2.6-1H138.2z"/>
	<path d="M168.9,100.3c-0.4,0-0.7-0.1-0.9-0.3c-0.2-0.2-0.3-0.5-0.3-0.9V33c0-0.3,0.1-0.6,0.3-0.9c0.2-0.2,0.5-0.3,0.9-0.3h3.2
		c1,0,1.8,0.3,2.4,0.8c0.6,0.5,0.9,1.3,0.9,2.1v59h7.1c0.9,0,1.6,0.3,2.1,0.9c0.5,0.6,0.8,1.4,0.8,2.4v2c0,0.4-0.1,0.7-0.3,0.9
		c-0.2,0.2-0.5,0.3-0.9,0.3H168.9z"/>
	<path d="M213.6,73.4c0-1,0.3-1.8,0.8-2.5c0.5-0.7,1.4-1,2.4-1h3.4c0.4,0,0.7,0.1,0.9,0.3c0.2,0.2,0.3,0.5,0.3,0.9v20.1
		c0,3.1-1,5.5-2.9,7.3c-2,1.8-4.7,2.7-8.2,2.7c-1.7,0-3.2-0.2-4.6-0.7c-1.4-0.5-2.5-1.1-3.5-2c-1-0.9-1.7-1.9-2.3-3.1
		c-0.5-1.2-0.8-2.6-0.8-4.1V40.9c0-3.1,1-5.5,2.9-7.3c2-1.8,4.7-2.7,8.2-2.7c1.7,0,3.2,0.2,4.6,0.7c1.4,0.5,2.6,1.1,3.5,2
		c1,0.9,1.7,1.9,2.3,3.1s0.8,2.6,0.8,4.1v20.8c0,0.3-0.1,0.6-0.3,0.9c-0.2,0.2-0.5,0.3-0.9,0.3h-3.2c-1.1,0-2-0.3-2.5-1
		c-0.6-0.6-0.8-1.5-0.8-2.5V40.9c0-1-0.3-1.9-0.8-2.5c-0.5-0.6-1.4-1-2.6-1c-1.1,0-2,0.3-2.5,1c-0.6,0.6-0.8,1.5-0.8,2.5v50.3
		c0,1,0.3,1.9,0.8,2.5c0.5,0.6,1.4,1,2.6,1c1.1,0,2-0.3,2.5-1c0.6-0.6,0.8-1.5,0.8-2.5V73.4z"/>
</g>
</svg>
