<?xml version="1.0" encoding="utf-8"?>
<!-- Generator: Adobe Illustrator 26.3.1, SVG Export Plug-In . SVG Version: 6.00 Build 0)  -->
<svg version="1.1" id="a" xmlns="http://www.w3.org/2000/svg" xmlns:xlink="http://www.w3.org/1999/xlink" x="0px" y="0px"
	 viewBox="0 0 354.9 133.1" style="enable-background:new 0 0 354.9 133.1;" xml:space="preserve">
<style type="text/css">
	.st0{enable-background:new    ;}
	.st1{opacity:7.000000e-02;enable-background:new    ;}
</style>
<g class="st0">
	<path d="M103.6,69.6c0.3,0,0.6,0.1,0.7,0.2c0.2,0.2,0.2,0.4,0.2,0.7V88c0,2.6-0.8,4.5-2.4,6c-1.6,1.5-3.9,2.2-6.7,2.2
		c-1.4,0-2.6-0.2-3.8-0.6s-2.1-0.9-2.9-1.6s-1.4-1.6-1.9-2.6c-0.4-1-0.7-2.1-0.7-3.4V46.6c0-2.6,0.8-4.5,2.4-6
		c1.6-1.5,3.9-2.2,6.7-2.2c1.4,0,2.6,0.2,3.8,0.6c1.2,0.4,2.1,0.9,2.9,1.6c0.7,0.7,1.4,1.6,1.9,2.6c0.4,1,0.7,2.1,0.7,3.4v18.1
		c0,0.2-0.1,0.5-0.2,0.7c-0.2,0.2-0.4,0.2-0.7,0.2H101c-0.9,0-1.6-0.2-2.1-0.8c-0.5-0.5-0.7-1.2-0.7-2.1V46.6c0-0.8-0.2-1.6-0.7-2.1
		s-1.2-0.8-2.1-0.8c-0.9,0-1.6,0.2-2.1,0.8c-0.5,0.5-0.7,1.2-0.7,2.1V88c0,0.8,0.2,1.6,0.7,2.1c0.4,0.5,1.2,0.8,2.1,0.8
		c0.9,0,1.6-0.2,2.1-0.8c0.5-0.5,0.7-1.2,0.7-2.1V74.9c-1.9,0-2.9-0.9-2.9-2.8v-1.6c0-0.3,0.1-0.6,0.2-0.7c0.2-0.2,0.4-0.2,0.7-0.2
		h7.2V69.6z"/>
	<path d="M137.7,39.1c1.4,0,2.6,0.2,3.7,0.6c1.2,0.4,2.1,1,2.9,1.6c0.8,0.7,1.4,1.6,1.8,2.6s0.7,2.1,0.7,3.4v17.4
		c0,1.4-0.2,2.6-0.8,3.5c-0.6,0.9-1.3,1.6-2.3,2.1c1,0.6,1.7,1.2,2.3,2.1c0.6,0.9,0.8,2,0.8,3.4v18.7c0,0.2-0.1,0.5-0.2,0.7
		c-0.2,0.2-0.4,0.2-0.7,0.2h-2.6c-0.9,0-1.6-0.2-2.1-0.8c-0.5-0.5-0.7-1.2-0.7-2.1V75.8c0-0.8-0.2-1.6-0.7-2.1
		c-0.4-0.5-1.2-0.8-2.1-0.8h-2.8v19.8c0,0.8-0.2,1.5-0.7,2.1c-0.5,0.5-1.2,0.8-2.1,0.8h-2.6c-0.3,0-0.6-0.1-0.7-0.2
		s-0.2-0.4-0.2-0.7V40.3c0-0.2,0.1-0.5,0.2-0.7c0.2-0.2,0.4-0.2,0.7-0.2h8.2V39.1z M134.8,44.5v23.1h2.8c1,0,1.6-0.2,2.1-0.8
		c0.4-0.6,0.7-1.2,0.7-2.1V47.4c0-0.8-0.2-1.5-0.7-2.1c-0.5-0.6-1.2-0.8-2.1-0.8H134.8z"/>
	<path d="M179.8,39.1c1.4,0,2.6,0.2,3.8,0.6c1.2,0.4,2.1,0.9,2.9,1.6c0.8,0.7,1.4,1.6,1.9,2.6c0.4,1,0.7,2.1,0.7,3.4v13.8
		c0,1.4-0.2,2.6-0.8,3.5s-1.3,1.6-2.3,2.1c1,0.6,1.7,1.2,2.3,2.1s0.8,2,0.8,3.4v15.1c0,2.6-0.8,4.5-2.5,6s-3.9,2.2-6.7,2.2h-8.2
		c-0.3,0-0.6-0.1-0.7-0.2c-0.2-0.2-0.2-0.4-0.2-0.7V40.2c0-0.2,0.1-0.5,0.2-0.7c0.2-0.2,0.4-0.2,0.7-0.2L179.8,39.1L179.8,39.1z
		 M179.8,64c1,0,1.6-0.2,2.1-0.8c0.4-0.6,0.7-1.2,0.7-2.1V47.4c0-0.8-0.2-1.6-0.7-2.1c-0.4-0.5-1.2-0.8-2.1-0.8h-2.7V64H179.8z
		 M177.1,69.3v20.7h2.8c1,0,1.7-0.2,2.1-0.8c0.4-0.6,0.7-1.2,0.7-2.1v-15c0-0.8-0.2-1.5-0.7-2.1c-0.4-0.6-1.2-0.8-2.1-0.8H177.1z"/>
	<path d="M213.8,95.5c-0.3,0-0.6-0.1-0.7-0.2c-0.2-0.2-0.2-0.4-0.2-0.7V40.2c0-0.2,0.1-0.5,0.2-0.7c0.2-0.2,0.4-0.2,0.7-0.2h2.6
		c0.8,0,1.5,0.2,2,0.7s0.7,1.1,0.7,1.7v48.6h5.8c0.7,0,1.3,0.2,1.7,0.7s0.7,1.2,0.7,2v1.6c0,0.3-0.1,0.6-0.2,0.7
		c-0.2,0.2-0.4,0.2-0.7,0.2H213.8z"/>
	<path d="M262,73.4c0-0.8,0.2-1.5,0.7-2.1c0.4-0.6,1.2-0.8,2-0.8h2.8c0.3,0,0.6,0.1,0.7,0.2c0.2,0.2,0.2,0.4,0.2,0.7V88
		c0,2.6-0.8,4.5-2.4,6c-1.6,1.5-3.9,2.2-6.7,2.2c-1.4,0-2.6-0.2-3.8-0.6s-2.1-0.9-2.9-1.6c-0.8-0.7-1.4-1.6-1.9-2.6
		c-0.4-1-0.7-2.1-0.7-3.4V46.6c0-2.6,0.8-4.5,2.4-6c1.6-1.5,3.9-2.2,6.7-2.2c1.4,0,2.6,0.2,3.8,0.6c1.2,0.4,2.1,0.9,2.9,1.6
		c0.8,0.7,1.4,1.6,1.9,2.6c0.4,1,0.7,2.1,0.7,3.4v17.2c0,0.2-0.1,0.5-0.2,0.7c-0.2,0.2-0.4,0.2-0.7,0.2h-2.6c-0.9,0-1.6-0.2-2.1-0.8
		c-0.5-0.5-0.7-1.2-0.7-2.1V46.6c0-0.8-0.2-1.6-0.7-2.1s-1.2-0.8-2.1-0.8c-0.9,0-1.6,0.2-2.1,0.8c-0.5,0.5-0.7,1.2-0.7,2.1V88
		c0,0.8,0.2,1.6,0.7,2.1c0.4,0.5,1.2,0.8,2.1,0.8c0.9,0,1.6-0.2,2.1-0.8c0.5-0.5,0.7-1.2,0.7-2.1L262,73.4L262,73.4z"/>
</g>
<path class="st1" d="M50.8,12.8h253.3c9.3,0,16.7,7.5,16.7,16.7v74c0,9.3-7.5,16.7-16.7,16.7H50.8c-9.3,0-16.7-7.5-16.7-16.7v-74
	C34.1,20.3,41.6,12.8,50.8,12.8z"/>
</svg>
